<svg xmlns="http://www.w3.org/2000/svg" fill="none" viewBox="0 0 24 24"><g fill="#00F" clip-path="url(#a)"><path d="M3.238 15.016A8.879 8.879 0 0 1 3 13a9.023 9.023 0 0 1 4.531-7.8 4.931 4.931 0 0 1-.511-2A11.033 11.033 0 0 0 1 13c.002.928.122 1.852.358 2.749a3.025 3.025 0 1 0 1.88-.733ZM14.94 2.407a3.026 3.026 0 1 0-.3 1.991A9.023 9.023 0 0 1 21 13v.023c.69.046 1.364.235 1.977.556.011-.193.024-.386.024-.579A11.024 11.024 0 0 0 14.94 2.407ZM22.16 15.4a2.99 2.99 0 0 0-4.036 4.174 8.942 8.942 0 0 1-10.647 1.2A4.934 4.934 0 0 1 6.018 22.2 10.89 10.89 0 0 0 19.7 20.821c.306.112.629.172.955.179a3 3 0 0 0 1.5-5.6h.005Z"></path></g><defs><clipPath id="a"><path fill="#fff" d="M0 0h24v24H0z"></path></clipPath></defs></svg>