<svg xmlns="http://www.w3.org/2000/svg" fill="none" viewBox="0 0 24 24"><g clip-path="url(#a)"><path fill="#00F" d="m18.293.293-8.036 8.036A8.024 8.024 0 0 0-.009 15.33c-.304 3.169 1.397 6.299 4.222 7.767 4.639 2.411 10.053-.058 11.458-4.808a8.01 8.01 0 0 0 0-4.546l2.036-2.036A1 1 0 0 0 18 11V9a1 1 0 0 1 1-1h2c.265 0 .52-.105.707-.293l2-2A1 1 0 0 0 24 5V1a1 1 0 0 0-1-1h-4a.997.997 0 0 0-.707.293ZM8 19a3 3 0 1 1 0-6 3 3 0 0 1 0 6Z"></path></g><defs><clipPath id="a"><path fill="#fff" d="M0 0h24v24H0z"></path></clipPath></defs></svg>