<svg xmlns="http://www.w3.org/2000/svg" fill="none" viewBox="0 0 166 38"><path fill="#000" fill-rule="evenodd" d="M16.7 30.895h3.065V7.177H16.7v23.718Z" clip-rule="evenodd"></path><path fill="#000" fill-rule="evenodd" d="M16.912 0H0v38h16.912c12.134 0 21.004-6.96 21.004-18.965C37.916 6.605 29.046 0 16.912 0Zm0 3.067c11.234 0 17.94 5.97 17.94 15.968 0 9.806-6.874 15.898-17.94 15.898H3.064V3.067h13.848Z" clip-rule="evenodd"></path><path fill="#000" fill-rule="evenodd" d="M18.232 10.258c-5.107 0-9.247 3.847-9.247 8.592 0 4.744 4.14 8.591 9.247 8.591s9.248-3.847 9.248-8.591c0-4.745-4.14-8.592-9.248-8.592Zm0 3.066c3.41 0 6.185 2.48 6.185 5.526s-2.775 5.525-6.185 5.525c-3.41 0-6.184-2.48-6.184-5.525 0-3.047 2.774-5.526 6.184-5.526Z" clip-rule="evenodd"></path><path fill="#000" d="M157.893 28.312c-1.178 0-2.201-.295-3.068-.884-.866-.59-1.534-1.43-2.002-2.522-.468-1.092-.702-2.375-.702-3.848 0-1.456.234-2.73.702-3.822.468-1.092 1.136-1.933 2.002-2.522.884-.607 1.907-.91 3.068-.91.954 0 1.794.208 2.522.624a4.009 4.009 0 0 1 1.69 1.664V9.54h3.172V28h-2.99l-.078-2.054c-.381.745-.962 1.326-1.742 1.742-.762.416-1.62.624-2.574.624Zm.936-2.626c.694 0 1.283-.173 1.768-.52.486-.364.858-.893 1.118-1.586.26-.693.39-1.534.39-2.522 0-.988-.13-1.829-.39-2.522-.26-.693-.632-1.213-1.118-1.56-.485-.364-1.074-.546-1.768-.546-1.04 0-1.872.416-2.496 1.248-.606.815-.91 1.941-.91 3.38 0 1.421.304 2.548.91 3.38.624.832 1.456 1.248 2.496 1.248ZM137.692 14.116h2.886l.104 3.848-.39-.156c.226-1.352.737-2.357 1.534-3.016.798-.659 1.794-.988 2.99-.988 1.491 0 2.644.485 3.458 1.456.832.953 1.248 2.227 1.248 3.822V28h-3.198v-7.904c0-1.23-.19-2.15-.572-2.756-.364-.607-.996-.91-1.898-.91-.918 0-1.646.32-2.184.962-.537.624-.806 1.525-.806 2.704V28h-3.172V14.116ZM126.805 28.312c-1.422 0-2.54-.46-3.354-1.378-.798-.936-1.196-2.227-1.196-3.874v-8.944h3.172v8.164c0 1.179.199 2.045.598 2.6.398.555 1.005.832 1.82.832.918 0 1.638-.303 2.158-.91.52-.624.78-1.508.78-2.652v-8.034h3.172V28h-2.938l-.052-3.77.416.156c-.226 1.283-.728 2.262-1.508 2.938-.78.659-1.803.988-3.068.988ZM112.564 13.492c0-1.248.346-2.219 1.04-2.912.71-.693 1.768-1.04 3.172-1.04h2.626v2.496h-2.08c-.538 0-.936.139-1.196.416-.243.277-.364.685-.364 1.222V28h-3.198V13.492Zm-1.95.936h8.606v2.496h-8.606v-2.496ZM99.726 28.312c-1.473 0-2.643-.33-3.51-.988-.866-.676-1.3-1.603-1.3-2.782 0-1.196.364-2.132 1.092-2.808.728-.676 1.864-1.17 3.406-1.482l4.654-.884c0-1.005-.234-1.76-.702-2.262-.468-.52-1.152-.78-2.054-.78-.814 0-1.464.19-1.95.572-.468.364-.788.91-.962 1.638l-3.25-.182c.26-1.456.927-2.574 2.002-3.354 1.075-.797 2.462-1.196 4.16-1.196 1.942 0 3.415.494 4.42 1.482 1.006.988 1.508 2.41 1.508 4.264v5.148c0 .347.061.59.182.728.122.139.321.208.598.208h.442V28c-.121.035-.294.06-.52.078a7.834 7.834 0 0 1-.65.026c-.953 0-1.681-.234-2.184-.702-.485-.468-.728-1.265-.728-2.392l.312.182c-.225.919-.797 1.673-1.716 2.262-.901.572-1.984.858-3.25.858Zm.624-2.366c.746 0 1.396-.147 1.95-.442a3.014 3.014 0 0 0 1.3-1.248c.312-.537.468-1.161.468-1.872v-.806l-3.718.754c-.745.139-1.291.364-1.638.676-.33.312-.494.72-.494 1.222 0 .555.182.98.546 1.274.364.295.893.442 1.586.442ZM90.111 28c-1.352 0-2.357-.312-3.016-.936-.641-.641-.962-1.638-.962-2.99V10.866h3.198v12.922c0 .641.13 1.092.39 1.352.278.243.72.364 1.326.364h1.95V28h-2.886Zm-6.11-13.884h8.996v2.522h-8.996v-2.522ZM74.412 28.312c-1.474 0-2.644-.33-3.51-.988-.867-.676-1.3-1.603-1.3-2.782 0-1.196.364-2.132 1.092-2.808.728-.676 1.863-1.17 3.406-1.482l4.654-.884c0-1.005-.234-1.76-.702-2.262-.468-.52-1.153-.78-2.054-.78-.815 0-1.465.19-1.95.572-.468.364-.789.91-.962 1.638l-3.25-.182c.26-1.456.927-2.574 2.002-3.354 1.074-.797 2.461-1.196 4.16-1.196 1.941 0 3.414.494 4.42 1.482 1.005.988 1.508 2.41 1.508 4.264v5.148c0 .347.06.59.182.728.121.139.32.208.598.208h.442V28a2.79 2.79 0 0 1-.52.078 7.847 7.847 0 0 1-.65.026c-.954 0-1.682-.234-2.184-.702-.486-.468-.728-1.265-.728-2.392l.312.182c-.226.919-.798 1.673-1.716 2.262-.902.572-1.985.858-3.25.858Zm.624-2.366c.745 0 1.395-.147 1.95-.442a3.018 3.018 0 0 0 1.3-1.248c.312-.537.468-1.161.468-1.872v-.806l-3.718.754c-.746.139-1.292.364-1.638.676-.33.312-.494.72-.494 1.222 0 .555.182.98.546 1.274.364.295.892.442 1.586.442ZM52.106 9.54h6.11c2.93 0 5.183.806 6.76 2.418 1.577 1.595 2.366 3.874 2.366 6.838 0 2.947-.78 5.217-2.34 6.812C63.459 27.203 61.249 28 58.372 28h-6.266V9.54Zm6.11 15.6c1.941 0 3.389-.52 4.342-1.56.953-1.057 1.43-2.652 1.43-4.784 0-2.15-.477-3.753-1.43-4.81-.953-1.057-2.4-1.586-4.342-1.586h-2.86v12.74h2.86Z"></path></svg>